<svg width="254" height="49" viewBox="0 0 254 49" fill="none" xmlns="http://www.w3.org/2000/svg">
<path fill-rule="evenodd" clip-rule="evenodd" d="M12.3923 0C10.4569 0 8.79911 1.38565 8.45575 3.29035L1.06459 44.2904C0.622268 46.744 2.50795 49 5.00113 49H94.0388C95.9743 49 97.632 47.6143 97.9754 45.7096L105.367 4.70965C105.809 2.25602 103.923 0 101.43 0H12.3923ZM11.68 11L6.08 39H28.16L29.64 31.68H17L21.12 11H11.68ZM37.0475 38.16C38.8342 38.9867 40.9275 39.4 43.3275 39.4C45.9942 39.4 48.3408 38.8533 50.3675 37.76C52.4208 36.6667 54.0342 35.1733 55.2075 33.28C56.3808 31.3867 56.9675 29.24 56.9675 26.84C56.9675 24.7867 56.4742 23.0133 55.4875 21.52C54.5275 20 53.1542 18.8267 51.3675 18C49.6075 17.1467 47.5142 16.72 45.0875 16.72C42.4475 16.72 40.1008 17.2667 38.0475 18.36C35.9942 19.4533 34.3808 20.9467 33.2075 22.84C32.0342 24.7333 31.4475 26.88 31.4475 29.28C31.4475 31.3067 31.9275 33.08 32.8875 34.6C33.8742 36.12 35.2608 37.3067 37.0475 38.16ZM45.9275 31.76C45.3408 32.16 44.6475 32.36 43.8475 32.36C42.8342 32.36 42.0342 32.04 41.4475 31.4C40.8875 30.7333 40.6075 29.88 40.6075 28.84C40.6075 27.8 40.7675 26.9067 41.0875 26.16C41.4342 25.3867 41.9008 24.8 42.4875 24.4C43.1008 23.9733 43.7942 23.76 44.5675 23.76C45.6075 23.76 46.4075 24.12 46.9675 24.84C47.5275 25.5333 47.8075 26.3467 47.8075 27.28C47.8075 28.32 47.6342 29.2267 47.2875 30C46.9675 30.7467 46.5142 31.3333 45.9275 31.76ZM61.0788 38.84C62.8387 39.2133 64.6921 39.4 66.6387 39.4C68.8788 39.4 70.9187 39.1067 72.7588 38.52C74.6254 37.9067 76.1054 36.9867 77.1988 35.76C78.3187 34.5333 78.8788 33.0133 78.8788 31.2C78.8788 29.9733 78.6121 28.9867 78.0788 28.24C77.5454 27.4933 76.8654 26.92 76.0387 26.52C75.2121 26.0933 74.3187 25.7867 73.3587 25.6C72.4254 25.3867 71.5454 25.2267 70.7188 25.12C69.8921 24.9867 69.2121 24.84 68.6787 24.68C68.1454 24.52 67.8788 24.28 67.8788 23.96C67.8788 23.6933 68.0788 23.4533 68.4788 23.24C68.8788 23 69.5987 22.88 70.6387 22.88C71.5721 22.88 72.5987 22.9867 73.7188 23.2C74.8654 23.4133 76.0121 23.8533 77.1588 24.52L80.2787 18.36C79.1321 17.8267 77.8121 17.4267 76.3187 17.16C74.8521 16.8667 73.3187 16.72 71.7188 16.72C69.4521 16.72 67.3854 17.0267 65.5188 17.64C63.6521 18.2267 62.1587 19.1333 61.0387 20.36C59.9454 21.56 59.3988 23.1067 59.3988 25C59.3988 26.2267 59.6654 27.2133 60.1987 27.96C60.7321 28.7067 61.4121 29.2933 62.2388 29.72C63.0921 30.12 63.9854 30.4267 64.9188 30.64C65.8521 30.8533 66.7321 31.0133 67.5588 31.12C68.4121 31.2267 69.1054 31.36 69.6387 31.52C70.1721 31.6533 70.4388 31.88 70.4388 32.2C70.4388 32.4933 70.2388 32.7467 69.8388 32.96C69.4654 33.1467 68.7721 33.24 67.7588 33.24C66.5321 33.24 65.2254 33.08 63.8387 32.76C62.4788 32.4133 61.2521 31.9067 60.1587 31.24L57.0387 37.4C57.9987 37.96 59.3454 38.44 61.0788 38.84ZM85.8559 38.36C87.1626 39.0533 88.7493 39.4 90.6159 39.4C91.6826 39.4 92.7226 39.2933 93.7359 39.08C94.7759 38.8933 95.7093 38.5733 96.5359 38.12L95.4959 32.04C95.1493 32.2 94.8159 32.3333 94.4959 32.44C94.2026 32.52 93.8693 32.56 93.4959 32.56C92.8826 32.56 92.4293 32.3867 92.1359 32.04C91.8426 31.6933 91.7626 31.1467 91.8959 30.4L92.9919 24.92H97.4559L98.7759 18.32H94.3119L95.5359 12.2H86.4959L85.2746 18.32H82.2559L80.9359 24.92H83.9575L82.8559 30.44C82.4826 32.3333 82.5626 33.96 83.0959 35.32C83.6293 36.6533 84.5493 37.6667 85.8559 38.36Z" fill="white"/>
<path d="M111.591 39L115.711 18.32H107.511L108.991 11H134.831L133.351 18.32H125.151L121.031 39H111.591ZM142.056 39.4C139.656 39.4 137.562 38.9867 135.776 38.16C133.989 37.3067 132.602 36.12 131.616 34.6C130.656 33.08 130.176 31.3067 130.176 29.28C130.176 26.88 130.762 24.7333 131.936 22.84C133.109 20.9467 134.722 19.4533 136.776 18.36C138.829 17.2667 141.176 16.72 143.816 16.72C146.242 16.72 148.336 17.1467 150.096 18C151.882 18.8267 153.256 20 154.216 21.52C155.202 23.0133 155.696 24.7867 155.696 26.84C155.696 29.24 155.109 31.3867 153.936 33.28C152.762 35.1733 151.149 36.6667 149.096 37.76C147.069 38.8533 144.722 39.4 142.056 39.4ZM142.576 32.36C143.376 32.36 144.069 32.16 144.656 31.76C145.242 31.3333 145.696 30.7467 146.016 30C146.362 29.2267 146.536 28.32 146.536 27.28C146.536 26.3467 146.256 25.5333 145.696 24.84C145.136 24.12 144.336 23.76 143.296 23.76C142.522 23.76 141.829 23.9733 141.216 24.4C140.629 24.8 140.162 25.3867 139.816 26.16C139.496 26.9067 139.336 27.8 139.336 28.84C139.336 29.88 139.616 30.7333 140.176 31.4C140.762 32.04 141.562 32.36 142.576 32.36ZM168.527 22.92H180.847L179.407 30.04H167.127L168.527 22.92ZM165.967 39H156.527L162.127 11H184.887L183.447 18.12H170.127L165.967 39ZM181.989 39L186.349 17.12H195.349L190.989 39H181.989ZM191.829 15.36C190.256 15.36 189.002 14.9467 188.069 14.12C187.162 13.2933 186.709 12.28 186.709 11.08C186.709 9.66667 187.229 8.49333 188.269 7.56C189.336 6.62667 190.736 6.16 192.469 6.16C194.042 6.16 195.282 6.54666 196.189 7.32C197.122 8.09333 197.589 9.08 197.589 10.28C197.589 11.7733 197.056 13 195.989 13.96C194.949 14.8933 193.562 15.36 191.829 15.36ZM213.997 16.72C215.81 16.72 217.357 17.1067 218.637 17.88C219.943 18.6267 220.863 19.76 221.397 21.28C221.957 22.7733 222.01 24.6533 221.557 26.92L219.157 39H210.117L212.317 28C212.557 26.8 212.503 25.8933 212.157 25.28C211.81 24.64 211.157 24.32 210.197 24.32C209.183 24.32 208.33 24.6667 207.637 25.36C206.943 26.0267 206.45 27.0667 206.157 28.48L204.037 39H194.997L199.357 17.12H207.877L206.637 23.24L205.597 21.56C206.637 19.88 207.917 18.6533 209.437 17.88C210.983 17.1067 212.503 16.72 213.997 16.72ZM233.478 39.4C232.038 39.4 230.625 39.0133 229.238 38.24C227.851 37.44 226.705 36.2933 225.798 34.8C224.918 33.28 224.478 31.44 224.478 29.28C224.478 27.4667 224.785 25.8 225.398 24.28C226.011 22.76 226.851 21.44 227.918 20.32C229.011 19.1733 230.251 18.2933 231.638 17.68C233.051 17.04 234.545 16.72 236.118 16.72C237.585 16.72 238.878 16.9733 239.998 17.48C241.145 17.96 242.038 18.7867 242.678 19.96C243.345 21.1067 243.678 22.6667 243.678 24.64C243.678 26.5067 243.465 28.32 243.038 30.08C242.611 31.84 241.971 33.4267 241.118 34.84C240.265 36.2267 239.198 37.3333 237.918 38.16C236.638 38.9867 235.158 39.4 233.478 39.4ZM236.878 32.28C237.678 32.28 238.371 32.08 238.958 31.68C239.545 31.2533 239.998 30.6667 240.318 29.92C240.665 29.1733 240.838 28.2933 240.838 27.28C240.838 26.2667 240.545 25.44 239.958 24.8C239.398 24.16 238.611 23.84 237.598 23.84C236.825 23.84 236.131 24.0533 235.518 24.48C234.931 24.88 234.465 25.4533 234.118 26.2C233.798 26.9467 233.638 27.8267 233.638 28.84C233.638 29.8533 233.918 30.68 234.478 31.32C235.065 31.96 235.865 32.28 236.878 32.28ZM238.958 39L239.558 36.04L241.038 28.04L242.198 20.12L244.358 9.32H253.398L247.478 39H238.958Z" fill="black"/>
</svg>
