<svg width="550" height="65" viewBox="0 0 550 65" fill="none" xmlns="http://www.w3.org/2000/svg">
<rect x="0.5" y="0.5" width="549" height="64" rx="19.5" fill="white"/>
<rect x="0.5" y="0.5" width="549" height="64" rx="19.5" stroke="white"/>
<path d="M25.434 39.482C27.6633 39.482 28.778 38.7193 28.778 37.194C28.778 36.7247 28.6753 36.3287 28.47 36.006C28.2793 35.6687 28.0153 35.3827 27.678 35.148C27.3407 34.8987 26.952 34.686 26.512 34.51C26.0867 34.334 25.632 34.158 25.148 33.982C24.5907 33.7913 24.0627 33.5787 23.564 33.344C23.0653 33.0947 22.6327 32.8087 22.266 32.486C21.8993 32.1487 21.606 31.7527 21.386 31.298C21.1807 30.8433 21.078 30.2933 21.078 29.648C21.078 28.3133 21.5327 27.272 22.442 26.524C23.3513 25.776 24.6053 25.402 26.204 25.402C27.128 25.402 27.964 25.5047 28.712 25.71C29.4747 25.9007 30.032 26.1133 30.384 26.348L29.702 28.086C29.394 27.8953 28.932 27.712 28.316 27.536C27.7147 27.3453 27.0107 27.25 26.204 27.25C25.7933 27.25 25.412 27.294 25.06 27.382C24.708 27.47 24.4 27.602 24.136 27.778C23.872 27.954 23.6593 28.1813 23.498 28.46C23.3513 28.724 23.278 29.0393 23.278 29.406C23.278 29.8167 23.3587 30.1613 23.52 30.44C23.6813 30.7187 23.9087 30.968 24.202 31.188C24.4953 31.3933 24.8327 31.584 25.214 31.76C25.61 31.936 26.0427 32.112 26.512 32.288C27.172 32.552 27.7733 32.816 28.316 33.08C28.8733 33.344 29.35 33.6593 29.746 34.026C30.1567 34.3927 30.472 34.8327 30.692 35.346C30.912 35.8447 31.022 36.4533 31.022 37.172C31.022 38.5067 30.5307 39.5333 29.548 40.252C28.58 40.9707 27.2087 41.33 25.434 41.33C24.8327 41.33 24.2753 41.286 23.762 41.198C23.2633 41.1247 22.816 41.0367 22.42 40.934C22.024 40.8167 21.6793 40.6993 21.386 40.582C21.1073 40.45 20.8873 40.34 20.726 40.252L21.364 38.492C21.7013 38.6827 22.2147 38.8953 22.904 39.13C23.5933 39.3647 24.4367 39.482 25.434 39.482ZM32.831 35.302C32.831 34.29 32.9777 33.41 33.271 32.662C33.5643 31.8993 33.953 31.2687 34.437 30.77C34.921 30.2713 35.4783 29.8973 36.109 29.648C36.7397 29.3987 37.385 29.274 38.045 29.274C39.585 29.274 40.7657 29.758 41.587 30.726C42.4083 31.6793 42.819 33.1387 42.819 35.104C42.819 35.192 42.819 35.3093 42.819 35.456C42.819 35.588 42.8117 35.7127 42.797 35.83H34.965C35.053 37.018 35.3977 37.92 35.999 38.536C36.6003 39.152 37.539 39.46 38.815 39.46C39.5337 39.46 40.135 39.4013 40.619 39.284C41.1177 39.152 41.4917 39.0273 41.741 38.91L42.027 40.626C41.7777 40.758 41.3377 40.8973 40.707 41.044C40.091 41.1907 39.387 41.264 38.595 41.264C37.5977 41.264 36.7323 41.1173 35.999 40.824C35.2803 40.516 34.6863 40.098 34.217 39.57C33.7477 39.042 33.3957 38.4187 33.161 37.7C32.941 36.9667 32.831 36.1673 32.831 35.302ZM40.685 34.18C40.6997 33.256 40.465 32.5007 39.981 31.914C39.5117 31.3127 38.859 31.012 38.023 31.012C37.5537 31.012 37.1357 31.1073 36.769 31.298C36.417 31.474 36.1163 31.7087 35.867 32.002C35.6177 32.2953 35.4197 32.6327 35.273 33.014C35.141 33.3953 35.053 33.784 35.009 34.18H40.685ZM49.63 39.526C50.114 39.526 50.5394 39.5187 50.906 39.504C51.2874 39.4747 51.6027 39.4307 51.852 39.372V35.962C51.7054 35.8887 51.4634 35.83 51.126 35.786C50.8034 35.7273 50.4074 35.698 49.938 35.698C49.63 35.698 49.3 35.72 48.948 35.764C48.6107 35.808 48.2954 35.9033 48.002 36.05C47.7234 36.182 47.4887 36.3727 47.298 36.622C47.1074 36.8567 47.012 37.172 47.012 37.568C47.012 38.3013 47.2467 38.8147 47.716 39.108C48.1854 39.3867 48.8234 39.526 49.63 39.526ZM49.454 29.274C50.2754 29.274 50.9647 29.384 51.522 29.604C52.094 29.8093 52.5487 30.11 52.886 30.506C53.238 30.8873 53.4874 31.3493 53.634 31.892C53.7807 32.42 53.854 33.0067 53.854 33.652V40.802C53.678 40.8313 53.4287 40.8753 53.106 40.934C52.798 40.978 52.446 41.022 52.05 41.066C51.654 41.11 51.2214 41.1467 50.752 41.176C50.2974 41.22 49.8427 41.242 49.388 41.242C48.7427 41.242 48.1487 41.176 47.606 41.044C47.0634 40.912 46.594 40.7067 46.198 40.428C45.802 40.1347 45.494 39.7533 45.274 39.284C45.054 38.8147 44.944 38.25 44.944 37.59C44.944 36.9593 45.0687 36.4167 45.318 35.962C45.582 35.5073 45.934 35.1407 46.374 34.862C46.814 34.5833 47.3274 34.378 47.914 34.246C48.5007 34.114 49.1167 34.048 49.762 34.048C49.9674 34.048 50.18 34.0627 50.4 34.092C50.62 34.1067 50.8254 34.136 51.016 34.18C51.2214 34.2093 51.3974 34.2387 51.544 34.268C51.6907 34.2973 51.7934 34.3193 51.852 34.334V33.762C51.852 33.4247 51.8154 33.0947 51.742 32.772C51.6687 32.4347 51.5367 32.1413 51.346 31.892C51.1554 31.628 50.8914 31.4227 50.554 31.276C50.2314 31.1147 49.806 31.034 49.278 31.034C48.6034 31.034 48.0094 31.0853 47.496 31.188C46.9974 31.276 46.6234 31.3713 46.374 31.474L46.132 29.78C46.396 29.6627 46.836 29.5527 47.452 29.45C48.068 29.3327 48.7354 29.274 49.454 29.274ZM61.4762 29.318C61.6522 29.318 61.8502 29.3327 62.0702 29.362C62.3049 29.3767 62.5322 29.406 62.7522 29.45C62.9722 29.4793 63.1702 29.516 63.3462 29.56C63.5369 29.5893 63.6762 29.6187 63.7642 29.648L63.4122 31.43C63.2509 31.3713 62.9795 31.3053 62.5982 31.232C62.2315 31.144 61.7549 31.1 61.1682 31.1C60.7869 31.1 60.4055 31.144 60.0242 31.232C59.6575 31.3053 59.4155 31.3567 59.2982 31.386V41H57.2522V30.044C57.7362 29.868 58.3375 29.7067 59.0562 29.56C59.7749 29.3987 60.5815 29.318 61.4762 29.318ZM70.7105 41.264C69.7865 41.264 68.9725 41.1173 68.2685 40.824C67.5792 40.5307 66.9925 40.12 66.5085 39.592C66.0392 39.064 65.6872 38.4407 65.4525 37.722C65.2178 36.9887 65.1005 36.182 65.1005 35.302C65.1005 34.422 65.2252 33.6153 65.4745 32.882C65.7385 32.1487 66.1052 31.518 66.5745 30.99C67.0438 30.4473 67.6158 30.0293 68.2905 29.736C68.9798 29.428 69.7425 29.274 70.5785 29.274C71.0918 29.274 71.6052 29.318 72.1185 29.406C72.6318 29.494 73.1232 29.6333 73.5925 29.824L73.1305 31.562C72.8225 31.4153 72.4632 31.298 72.0525 31.21C71.6565 31.122 71.2312 31.078 70.7765 31.078C69.6325 31.078 68.7525 31.4373 68.1365 32.156C67.5352 32.8747 67.2345 33.9233 67.2345 35.302C67.2345 35.918 67.3005 36.4827 67.4325 36.996C67.5792 37.5093 67.7992 37.9493 68.0925 38.316C68.4005 38.6827 68.7892 38.9687 69.2585 39.174C69.7278 39.3647 70.2998 39.46 70.9745 39.46C71.5172 39.46 72.0085 39.4087 72.4485 39.306C72.8885 39.2033 73.2332 39.0933 73.4825 38.976L73.7685 40.692C73.6512 40.7653 73.4825 40.8387 73.2625 40.912C73.0425 40.9707 72.7932 41.022 72.5145 41.066C72.2358 41.1247 71.9352 41.1687 71.6125 41.198C71.3045 41.242 71.0038 41.264 70.7105 41.264ZM75.9651 41V24.28L78.0111 23.928V29.78C78.3924 29.6333 78.7957 29.5233 79.2211 29.45C79.6611 29.362 80.0937 29.318 80.5191 29.318C81.4284 29.318 82.1837 29.45 82.7851 29.714C83.3864 29.9633 83.8631 30.3227 84.2151 30.792C84.5817 31.2467 84.8384 31.7967 84.9851 32.442C85.1317 33.0873 85.2051 33.7987 85.2051 34.576V41H83.1591V35.016C83.1591 34.312 83.1077 33.7107 83.0051 33.212C82.9171 32.7133 82.7631 32.31 82.5431 32.002C82.3231 31.694 82.0297 31.474 81.6631 31.342C81.2964 31.1953 80.8417 31.122 80.2991 31.122C80.0791 31.122 79.8517 31.1367 79.6171 31.166C79.3824 31.1953 79.1551 31.232 78.9351 31.276C78.7297 31.3053 78.5391 31.342 78.3631 31.386C78.2017 31.43 78.0844 31.4667 78.0111 31.496V41H75.9651ZM90.9534 39.812C90.9534 40.208 90.8214 40.5527 90.5574 40.846C90.2934 41.1393 89.9341 41.286 89.4794 41.286C89.0248 41.286 88.6654 41.1393 88.4014 40.846C88.1374 40.5527 88.0054 40.208 88.0054 39.812C88.0054 39.416 88.1374 39.0713 88.4014 38.778C88.6654 38.4847 89.0248 38.338 89.4794 38.338C89.9341 38.338 90.2934 38.4847 90.5574 38.778C90.8214 39.0713 90.9534 39.416 90.9534 39.812ZM96.3675 39.812C96.3675 40.208 96.2355 40.5527 95.9715 40.846C95.7075 41.1393 95.3482 41.286 94.8935 41.286C94.4388 41.286 94.0795 41.1393 93.8155 40.846C93.5515 40.5527 93.4195 40.208 93.4195 39.812C93.4195 39.416 93.5515 39.0713 93.8155 38.778C94.0795 38.4847 94.4388 38.338 94.8935 38.338C95.3482 38.338 95.7075 38.4847 95.9715 38.778C96.2355 39.0713 96.3675 39.416 96.3675 39.812ZM101.782 39.812C101.782 40.208 101.65 40.5527 101.386 40.846C101.122 41.1393 100.762 41.286 100.308 41.286C99.8529 41.286 99.4936 41.1393 99.2296 40.846C98.9656 40.5527 98.8336 40.208 98.8336 39.812C98.8336 39.416 98.9656 39.0713 99.2296 38.778C99.4936 38.4847 99.8529 38.338 100.308 38.338C100.762 38.338 101.122 38.4847 101.386 38.778C101.65 39.0713 101.782 39.416 101.782 39.812Z" fill="#737373"/>
<path d="M508.473 40.3365L518.712 49.7885M512.932 29.5985C512.932 37.8638 506.231 44.5642 497.966 44.5642C489.7 44.5642 483 37.8638 483 29.5985C483 21.3331 489.7 14.6327 497.966 14.6327C506.231 14.6327 512.932 21.3331 512.932 29.5985Z" stroke="black" stroke-width="3" stroke-linecap="round"/>
</svg>
